# AST/ASF file generated using VICON BodyLanguage
# -----------------------------------------------
:version 1.10
:name VICON
:units
  mass 1.0
  length 0.45
  angle deg
:documentation
   .ast/.asf automatically generated from VICON data using
   VICON BodyBuilder and BodyLanguage model FoxedUp or BRILLIANT.MOD
:root
   order TX TY TZ RX RY RZ
   axis XYZ
   position 0 0 0  
   orientation 0 0 0 
:bonedata
  begin
     id 1 
     name lhipjoint
     direction 0.589753 -0.68606 0.426044 
     length 2.54082 
     axis 0 0 0  XYZ
  end
  begin
     id 2 
     name lfemur
     direction 0.34202 -0.939693 0  
     length 7.04539  
     axis 0 0 20  XYZ
    dof rx ry rz
    limits (-160.0 20.0)
           (-70.0 70.0)
           (-60.0 70.0)
  end
  begin
     id 3 
     name ltibia
     direction 0.34202 -0.939693 0   
     length 7.83772   
     axis 0 0 20   XYZ
    dof rx
    limits (-10.0 170.0)
  end
  begin
     id 4 
     name lfoot
     direction 0.0596604 -0.163915 0.984669   
     length 2.39542   
     axis -90 7.62852e-016 20   XYZ
    dof rx rz
    limits (-45.0 90.0)
           (-70.0 20.0)
  end
  begin
     id 5 
     name ltoes
     direction 1.53514e-011 -4.21954e-011 1   
     length 1.2047   
     axis -90 7.62852e-016 20   XYZ
    dof rx
    limits (-90.0 20.0)
  end
  begin
     id 6 
     name rhipjoint
     direction -0.580585 -0.69168 0.429534   
     length 2.52018  
     axis 0 0 0  XYZ 
  end
  begin
     id 7 
     name rfemur
     direction -0.34202 -0.939693 0   
     length 7.0101   
     axis 0 0 -20   XYZ
    dof rx ry rz
    limits (-160.0 20.0)
           (-70.0 70.0)
           (-70.0 60.0)
  end
  begin
     id 8 
     name rtibia
     direction -0.34202 -0.939693 0   
     length 7.70628   
     axis 0 0 -20   XYZ
    dof rx
    limits (-10.0 170.0)
 end
 begin
     id 9 
     name rfoot
     direction -0.0696237 -0.19129 0.979061   
     length 2.52466  
     axis -90 -7.62852e-016 -20   XYZ
    dof rx rz
    limits (-45.0 90.0)
           (-20.0 70.0)
  end
  begin
     id 10 
     name rtoes
     direction -1.53519e-011 -4.21793e-011 1   
     length 1.266   
     axis -90 -7.62852e-016 -20   XYZ
    dof rx
    limits (-90.0 20.0)
  end
  begin
     id 11 
     name lowerback
     direction 0.00381965 0.995707 -0.0924856   
     length 2.20825   
     axis 0 0 0   XYZ
    dof rx ry rz
    limits (-20.0 45.0)
           (-30.0 30.0)
           (-30.0 30.0)
  end
  begin
     id 12 
     name upperback
     direction -0.0139043 0.999634 -0.0231929   
     length 2.21517   
     axis 0 0 0   XYZ
    dof rx ry rz
    limits (-20.0 45.0)
           (-30.0 30.0)
           (-30.0 30.0)
  end
  begin
     id 13 
     name thorax
     direction -0.0143933 0.999691 0.0202892   
     length 2.22911   
     axis 0 0 0   XYZ
    dof rx ry rz
    limits (-20.0 45.0)
           (-30.0 30.0)
           (-30.0 30.0)
  end
  begin
     id 14 
     name lowerneck
     direction -0.0251153 0.981819 0.188153   
     length 1.61782   
     axis 0 0 0   XYZ
    dof rx ry rz
    limits (-20.0 45.0)
           (-30.0 30.0)
           (-30.0 30.0)
  end
  begin
     id 15 
     name upperneck
     direction 0.0563891 0.969357 -0.239095   
     length 1.64526   
     axis 0 0 0   XYZ
    dof rx ry rz
    limits (-20.0 45.0)
           (-30.0 30.0)
           (-30.0 30.0)
  end
  begin
     id 16
     name head
     direction 0.0208328 0.99459 -0.101773  
     length 1.67436  
     axis 0 0 0   XYZ
    dof rx ry rz
    limits (-20.0 45.0)
           (-30.0 30.0)
           (-30.0 30.0)
  end
  begin
     id 17 
     name lclavicle
     direction 0.917689 0.397224 0.00772059  
     length 3.31102  
     axis 0 0 0   XYZ
    dof ry rz
    limits (-20.0 10.0)
           (0.0 20.0)
  end
  begin
     id 18 
     name lhumerus
     direction 1 -4.4896e-011 2.32308e-027   
     length 5.25537   
     axis 180 -30 -90   XYZ
    dof rx ry rz
    limits (-60.0 90.0)
           (-90.0 90.0)
           (-90.0 90.0)
  end
  begin
     id 19
     name lradius
     direction 1 -4.49005e-011 -2.04271e-027   
     length 3.38855   
     axis 180 -30 -90   XYZ
    dof rx
    limits (-10.0 170.0)
  end
  begin
     id 20
     name lwrist
     direction 1 -4.48892e-011 2.56952e-028   
     length 1.69428   
     axis -5.12785e-016 90 90   XYZ
    dof ry
    limits (-180.0 0.0)
 end
  begin
     id 21 
     name lhand
     direction 1 -4.48966e-011 5.13905e-028   
     length 0.614516   
     axis -3.27915e-016 90 90   XYZ
    dof rx rz
    limits (-90.0 90.0)
           (-45.0 45.0)
  end
  begin
     id 22 
     name lfingers
     direction 1 -4.48979e-011 1.02781e-027   
     length 0.495439   
     axis -6.5583e-016 90 90   XYZ
    dof rx
    limits (0.0 90.0)
  end
  begin
     id 23
     name lthumb
     direction 0.707107 -6.35001e-011 0.707107   
     length 0.711354   
     axis -90 45 2.85299e-015   XYZ
    dof rx rz
    limits (-45.0 45.0)
           (-45.0 45.0)
  end
  begin
     id 24 
     name rclavicle
     direction -0.938556 0.342765 -0.0403177   
     length 3.27019  
     axis 0 0 0   XYZ 
    dof ry rz
    limits (-10.0 20.0)
           (-20.0 0.0)
  end
  begin
     id 25 
     name rhumerus
     direction -1 -4.48966e-011 2.52291e-027  
     length 5.38183   
     axis 180 30 90   XYZ
    dof rx ry rz
    limits (-90.0 60.0)
           (-90.0 90.0)
           (-90.0 90.0)
  end
  begin
     id 26 
     name rradius
     direction -1 -4.4896e-011 1.5797e-027   
     length 3.16988   
     axis 180 30 90   XYZ
    dof rx
    limits (-10.0 170.0)
  end
  begin
     id 27 
     name rwrist
     direction -1 -4.48947e-011 2.56952e-028   
     length 1.58494   
     axis -5.12785e-016 -90 -90   XYZ
    dof ry
    limits (-180.0 0.0)
  end
  begin
     id 28
     name rhand
     direction -1 -4.49098e-011 5.13905e-028   
     length 0.637679   
     axis -3.27915e-016 -90 -90   XYZ
    dof rx rz
    limits (-90.0 90.0)
           (-45.0 45.0)
  end
  begin
     id 29
     name rfingers
     direction -1 -4.49026e-011 1.02781e-027   
     length 0.514113   
     axis -6.5583e-016 -90 -90   XYZ
    dof rx
    limits (0.0 90.0)
  end
  begin
     id 30
     name rthumb
     direction -0.707107 -6.3491e-011 0.707107   
     length 0.738167   
     axis -90 -45 -2.85299e-015   XYZ
    dof rx rz
    limits (-45.0 45.0)
           (-45.0 45.0)
  end
:hierarchy
  begin
    root lhipjoint rhipjoint lowerback
    lhipjoint lfemur
    lfemur ltibia
    ltibia lfoot
    lfoot ltoes
    rhipjoint rfemur
    rfemur rtibia
    rtibia rfoot
    rfoot rtoes
    lowerback upperback
    upperback thorax
    thorax lowerneck lclavicle rclavicle
    lowerneck upperneck
    upperneck head
    lclavicle lhumerus
    lhumerus lradius
    lradius lwrist
    lwrist lhand lthumb
    lhand lfingers
    rclavicle rhumerus
    rhumerus rradius
    rradius rwrist
    rwrist rhand rthumb
    rhand rfingers
  end

#!OML:ASF H:\Swim\Project 1\Capture day 1\Session 1\swimmer.ASF
:FULLY-SPECIFIED
:DEGREES
95
root 8.17513 15.3126 30.1236 -178.533 -8.42943 178.402
lowerback 10.8512 -0.594382 0.42617
upperback 5.83827 -1.37764 -1.32709
thorax -0.0450879 -0.91996 -1.46542
lowerneck -22.8938 -0.578557 -7.44222
upperneck 43.1993 -5.55096 5.24079
head 22.4798 -4.10897 2.25181
rclavicle 4.37326e-015 -7.95139e-016
rhumerus 41.8675 -11.9379 -55.0289
rradius 69.432
rwrist 7.79713
rhand 42.2387 -5.86766
rfingers 7.12502
rthumb 64.2229 -14.2874
lclavicle 4.37326e-015 -7.95139e-016
lhumerus 37.6478 9.35823 48.476
lradius 74.1277
lwrist -7.05263
lhand 43.039 10.9398
lfingers 7.12502
lthumb 64.8614 18.3457
rfemur -28.0679 -15.1505 6.31636
rtibia 56.1161
rfoot -19.8234 -16.8441
rtoes -11.8854
lfemur -32.6201 4.49773 -10.6727
ltibia 56.1485
lfoot -19.5699 6.10935
ltoes -13.0837
96
root 8.17437 15.3217 30.1297 -178.501 -8.43174 178.402
lowerback 10.8405 -0.590983 0.41502
upperback 5.84447 -1.37454 -1.32248
thorax -0.0324536 -0.918838 -1.45502
lowerneck -22.9223 -0.588274 -7.43456
upperneck 43.1926 -5.56668 5.2496
head 22.4877 -4.10971 2.25139
rclavicle 2.50469e-014 -2.38542e-015
rhumerus 41.7726 -11.877 -55.0338
rradius 69.4128
rwrist 7.7998
rhand 42.3562 -5.80222
rfingers 7.12502
rthumb 64.3173 -14.0763
lclavicle 2.50469e-014 -2.38542e-015
lhumerus 37.5894 9.28069 48.5012
lradius 74.1248
lwrist -7.06459
lhand 43.067 10.9259
lfingers 7.12502
lthumb 64.8836 18.2954
rfemur -28.0477 -15.1225 6.33166
rtibia 55.9676
rfoot -19.7687 -16.8507
rtoes -11.8351
lfemur -32.6002 4.4742 -10.6864
ltibia 56.006
lfoot -19.5135 6.09022
ltoes -12.966
97
root 8.17356 15.3318 30.1358 -178.47 -8.43415 178.402
lowerback 10.8323 -0.588006 0.406196
upperback 5.84951 -1.37171 -1.31848
thorax -0.0224374 -0.91777 -1.44647
lowerneck -22.9535 -0.598882 -7.42416
upperneck 43.1806 -5.58162 5.25885
head 22.4918 -4.10875 2.25096
rclavicle 3.19049e-014 -1.17283e-014
rhumerus 41.6803 -11.8194 -55.0363
rradius 69.3914
rwrist 7.78931
rhand 42.4351 -5.76104
rfingers 7.12502
rthumb 64.3805 -13.9367
lclavicle 3.19049e-014 -1.17283e-014
lhumerus 37.5333 9.19938 48.5123
lradius 74.121
lwrist -7.07429
lhand 43.1486 10.9454
lfingers 7.12502
lthumb 64.9482 18.2084
rfemur -28.0174 -15.092 6.34908
rtibia 55.8019
rfoot -19.7144 -16.8557
rtoes -11.7696
lfemur -32.5715 4.44863 -10.6998
ltibia 55.8489
lfoot -19.4525 6.06929
ltoes -12.8327
98
root 8.17264 15.3429 30.1418 -178.439 -8.4339 178.405
lowerback 10.8282 -0.585288 0.399938
upperback 5.85233 -1.36881 -1.31412
thorax -0.0169788 -0.916562 -1.43888
lowerneck -22.9848 -0.609404 -7.41204
upperneck 43.1613 -5.59289 5.26821
head 22.4892 -4.10517 2.25126
rclavicle 3.13086e-014 -2.46493e-014
rhumerus 41.592 -11.7618 -55.0338
rradius 69.3662
rwrist 7.77149
rhand 42.4822 -5.74279
rfingers 7.12502
rthumb 64.4181 -13.8596
lclavicle 3.13086e-014 -2.46493e-014
lhumerus 37.4763 9.11662 48.5071
lradius 74.1165
lwrist -7.07487
lhand 43.2067 10.952
lfingers 7.12502
lthumb 64.9941 18.1387
rfemur -27.9777 -15.0572 6.3695
rtibia 55.62
rfoot -19.6554 -16.8606
rtoes -11.7047
lfemur -32.5335 4.42323 -10.7114
ltibia 55.679
lfoot -19.3864 6.04732
ltoes -12.684
99
root 8.17152 15.3549 30.1477 -178.408 -8.43246 178.407
lowerback 10.8256 -0.582931 0.39589
upperback 5.85405 -1.36611 -1.31082
thorax -0.0135456 -0.915366 -1.43355
lowerneck -23.0185 -0.620753 -7.39831
upperneck 43.1344 -5.60226 5.27957
head 22.4807 -4.09922 2.25293
rclavicle -5.61567e-015 -8.34896e-015
rhumerus 41.5087 -11.7061 -55.0283
rradius 69.3369
rwrist 7.75148
rhand 42.5027 -5.74292
rfingers 7.12502
rthumb 64.4345 -13.834
lclavicle -5.61567e-015 -8.34896e-015
lhumerus 37.4241 9.03382 48.4885
lradius 74.1086
lwrist -7.06598
lhand 43.2038 10.9098
lfingers 7.12502
lthumb 64.9918 18.1003
rfemur -27.9296 -15.0212 6.3892
rtibia 55.4242
rfoot -19.5926 -16.8645
rtoes -11.6427
lfemur -32.488 4.39726 -10.725
ltibia 55.498
lfoot -19.3109 6.03447
ltoes -12.5693
100
root 8.17013 15.3675 30.1534 -178.38 -8.43029 178.41
lowerback 10.8258 -0.581293 0.39588
upperback 5.85525 -1.364 -1.30752
thorax -0.0122523 -0.91439 -1.43038
lowerneck -23.0556 -0.633148 -7.38468
upperneck 43.0999 -5.60827 5.29162
head 22.4668 -4.0908 2.25595
rclavicle 1.74434e-014 5.36719e-015
rhumerus 41.4331 -11.6525 -55.0165
rradius 69.303
rwrist 7.7333
rhand 42.508 -5.75357
rfingers 7.12502
rthumb 64.4388 -13.838
lclavicle 1.74434e-014 5.36719e-015
lhumerus 37.3771 8.95438 48.4588
lradius 74.0953
lwrist -7.04478
lhand 43.1243 10.8142
lfingers 7.12502
lthumb 64.9289 18.109
rfemur -27.8728 -14.9853 6.40848
rtibia 55.2174
rfoot -19.5252 -16.8673
rtoes -11.5909
lfemur -32.4348 4.37004 -10.7391
ltibia 55.3089
lfoot -19.2327 6.02398
ltoes -12.4561
101
root 8.16844 15.3805 30.159 -178.353 -8.42709 178.415
lowerback 10.8264 -0.579903 0.402614
upperback 5.85698 -1.36167 -1.30434
thorax -0.0107639 -0.913179 -1.43114
lowerneck -23.0991 -0.647552 -7.37048
upperneck 43.0583 -5.61182 5.30329
head 22.4488 -4.0801 2.25941
rclavicle -3.11595e-014 7.55382e-015
rhumerus 41.3675 -11.6037 -55.0005
rradius 69.2633
rwrist 7.72815
rhand 42.507 -5.76991
rfingers 7.12502
rthumb 64.438 -13.8556
lclavicle -3.11595e-014 7.55382e-015
lhumerus 37.3396 8.8792 48.4224
lradius 74.0762
lwrist -7.01341
lhand 43.0381 10.7081
lfingers 7.12502
lthumb 64.8607 18.1152
rfemur -27.8093 -14.949 6.42853
rtibia 55.0035
rfoot -19.4599 -16.8647
rtoes -11.5329
lfemur -32.3762 4.34351 -10.7523
ltibia 55.1145
lfoot -19.1519 6.01802
ltoes -12.3599
102
root 8.16647 15.3937 30.1644 -178.329 -8.42344 178.421
lowerback 10.8273 -0.578829 0.413083
upperback 5.86143 -1.35982 -1.30211
thorax -0.00669091 -0.912264 -1.43498
lowerneck -23.1536 -0.664579 -7.35454
upperneck 43.0102 -5.61363 5.31387
head 22.4291 -4.06714 2.26252
rclavicle -3.72721e-015 1.05356e-014
rhumerus 41.3162 -11.5616 -54.9813
rradius 69.2154
rwrist 7.74096
rhand 42.5043 -5.78021
rfingers 7.12502
rthumb 64.4358 -13.8693
lclavicle -3.72721e-015 1.05356e-014
lhumerus 37.3129 8.81303 48.3788
lradius 74.0532
lwrist -6.97369
lhand 42.9573 10.6204
lfingers 7.12502
lthumb 64.7966 18.1323
rfemur -27.7395 -14.9147 6.44609
rtibia 54.7862
rfoot -19.3981 -16.8576
rtoes -11.4796
lfemur -32.3118 4.3172 -10.7668
ltibia 54.9175
lfoot -19.0703 6.01184
ltoes -12.2712
103
root 8.16429 15.4068 30.1698 -178.307 -8.41923 178.426
lowerback 10.8264 -0.577141 0.426235
upperback 5.86784 -1.35713 -1.30056
thorax 0.000373715 -0.910936 -1.44118
lowerneck -23.2128 -0.685217 -7.33782
upperneck 42.953 -5.61583 5.32491
head 22.4036 -4.05265 2.26574
rclavicle -3.0265e-014 -1.98785e-015
rhumerus 41.2772 -11.5286 -54.9585
rradius 69.1599
rwrist 7.77574
rhand 42.4921 -5.78221
rfingers 7.12502
rthumb 64.426 -13.8866
lclavicle -3.0265e-014 -1.98785e-015
lhumerus 37.2992 8.7544 48.3323
lradius 74.0261
lwrist -6.9333
lhand 42.9908 10.6365
lfingers 7.12502
lthumb 64.8232 18.105
rfemur -27.6675 -14.882 6.46122
rtibia 54.5696
rfoot -19.3428 -16.845
rtoes -11.4123
lfemur -32.245 4.29345 -10.7828
ltibia 54.7204
lfoot -18.9888 6.00621
ltoes -12.1994
104
root 8.16195 15.4197 30.1749 -178.287 -8.41493 178.43
lowerback 10.8277 -0.575791 0.439555
upperback 5.87325 -1.3548 -1.29876
thorax 0.00517567 -0.909772 -1.44713
lowerneck -22.995 -0.685782 -7.30642
upperneck 43.0407 -5.65288 5.39339
head 21.9338 -4.01657 2.22948
rclavicle 1.42628e-014 -1.49089e-014
rhumerus 41.2487 -11.5014 -54.9298
rradius 69.0979
rwrist 7.83022
rhand 42.4705 -5.77467
rfingers 7.12502
rthumb 64.4087 -13.9062
lclavicle 1.42628e-014 -1.49089e-014
lhumerus 37.294 8.70335 48.2831
lradius 73.9965
lwrist -6.89846
lhand 43.1113 10.7287
lfingers 7.12502
lthumb 64.9187 18.0404
rfemur -27.5938 -14.8533 6.47389
rtibia 54.3565
rfoot -19.2962 -16.8243
rtoes -11.3344
lfemur -32.1768 4.27483 -10.7997
ltibia 54.5257
lfoot -18.909 5.99526
ltoes -12.1317
105
root 8.15936 15.4321 30.1799 -178.267 -8.41033 178.429
lowerback 10.8319 -0.574095 0.449835
upperback 5.87419 -1.35186 -1.29972
thorax 0.00378543 -0.908166 -1.45415
lowerneck -23.0571 -0.707796 -7.285
upperneck 42.9701 -5.65248 5.40547
head 21.9006 -3.99884 2.23348
rclavicle 2.16675e-014 -1.39149e-014
rhumerus 41.2225 -11.48 -54.8972
rradius 69.0335
rwrist 7.90166
rhand 42.4409 -5.75988
rfingers 7.12502
rthumb 64.385 -13.9285
lclavicle 2.16675e-014 -1.39149e-014
lhumerus 37.2957 8.65498 48.2311
lradius 73.9656
lwrist -6.87628
lhand 43.2881 10.8713
lfingers 7.12502
lthumb 65.0583 17.9507
rfemur -27.5224 -14.8329 6.47762
rtibia 54.1504
rfoot -19.2545 -16.7961
rtoes -11.2486
lfemur -32.1093 4.26131 -10.8241
ltibia 54.3361
lfoot -18.8327 5.98153
ltoes -12.0753
106
root 8.15664 15.444 30.1848 -178.248 -8.40449 178.424
lowerback 10.8431 -0.571943 0.458297
upperback 5.86856 -1.34784 -1.30171
thorax -0.00823822 -0.905822 -1.4611
lowerneck -23.1156 -0.729673 -7.26282
upperneck 42.8941 -5.651 5.41912
head 21.8623 -3.98004 2.23844
rclavicle -2.51463e-014 1.94809e-014
rhumerus 41.1984 -11.4636 -54.8638
rradius 68.9678
rwrist 7.99113
rhand 42.4066 -5.73401
rfingers 7.12502
rthumb 64.3576 -13.9453
lclavicle -2.51463e-014 1.94809e-014
lhumerus 37.301 8.60827 48.1766
lradius 73.9343
lwrist -6.87318
lhand 43.4179 10.9844
lfingers 7.12502
lthumb 65.1607 17.8915
rfemur -27.4545 -14.8198 6.47675
rtibia 53.9539
rfoot -19.2138 -16.762
rtoes -11.168
lfemur -32.0444 4.25399 -10.8511
ltibia 54.1554
lfoot -18.7622 5.95899
ltoes -11.9997
107
root 8.15379 15.455 30.1895 -178.23 -8.3965 178.416
lowerback 10.8614 -0.569784 0.464028
upperback 5.85548 -1.34333 -1.30534
thorax -0.0318509 -0.903015 -1.46799
lowerneck -23.1709 -0.750441 -7.24006
upperneck 42.8146 -5.64806 5.43495
head 21.8204 -3.96026 2.24477
rclavicle -3.97569e-016 2.127e-014
rhumerus 41.1763 -11.4497 -54.8326
rradius 68.9046
rwrist 8.08984
rhand 42.3647 -5.70634
rfingers 7.12502
rthumb 64.324 -13.9699
lclavicle -3.97569e-016 2.127e-014
lhumerus 37.3074 8.56407 48.1202
lradius 73.9041
lwrist -6.89346
lhand 43.4726 11.0366
lfingers 7.12502
lthumb 65.2036 17.8707
rfemur -27.3925 -14.8163 6.47062
rtibia 53.7702
rfoot -19.1703 -16.7266
rtoes -11.1191
lfemur -31.9837 4.25461 -10.8818
ltibia 53.9874
lfoot -18.6984 5.93295
ltoes -11.9238
108
root 8.15087 15.4649 30.1941 -178.213 -8.38771 178.406
lowerback 10.8842 -0.567608 0.46702
upperback 5.83883 -1.33872 -1.30881
thorax -0.0615532 -0.900111 -1.47305
lowerneck -23.2291 -0.77109 -7.21796
upperneck 42.732 -5.64251 5.45128
head 21.7771 -3.93913 2.25215
rclavicle -1.38155e-014 -4.37326e-015
rhumerus 41.1599 -11.4408 -54.8011
rradius 68.8473
rwrist 8.18886
rhand 42.3111 -5.67987
rfingers 7.12502
rthumb 64.2811 -14.01
lclavicle -1.38155e-014 -4.37326e-015
lhumerus 37.3184 8.52752 48.0649
lradius 73.8767
lwrist -6.93821
lhand 43.3445 10.9735
lfingers 7.12502
lthumb 65.1028 17.9783
rfemur -27.3369 -14.8222 6.46028
rtibia 53.6022
rfoot -19.1247 -16.6892
rtoes -11.0996
lfemur -31.9295 4.26127 -10.914
ltibia 53.8362
lfoot -18.6424 5.90006
ltoes -11.8275
109
root 8.14795 15.4736 30.1986 -178.199 -8.37776 178.399
lowerback 10.9093 -0.565908 0.47074
upperback 5.81993 -1.33437 -1.30995
thorax -0.0948204 -0.897266 -1.47601
lowerneck -23.2901 -0.792334 -7.19791
upperneck 42.6451 -5.63422 5.4679
head 21.7313 -3.91674 2.26072
rclavicle 2.87741e-014 1.92821e-014
rhumerus 41.1508 -11.4345 -54.7687
rradius 68.7991
rwrist 8.27837
rhand 42.2481 -5.66204
rfingers 7.12502
rthumb 64.2305 -14.0701
lclavicle 2.87741e-014 1.92821e-014
lhumerus 37.3325 8.5008 48.0134
lradius 73.8539
lwrist -7.0078
lhand 43.1581 10.8819
lfingers 7.12502
lthumb 64.9557 18.1323
rfemur -27.2891 -14.8349 6.45221
rtibia 53.4524
rfoot -19.0769 -16.6522
rtoes -11.111
lfemur -31.8837 4.2752 -10.9416
ltibia 53.7047
lfoot -18.5948 5.86255
ltoes -11.7344
